<svg fill="none" height="24" viewBox="0 0 24 24" width="24" xmlns="http://www.w3.org/2000/svg"><g fill="#292d32"><path d="m20.6009 4.10156v2.2c0 .8-.5 1.8-1 2.3l-4.3 3.80004c-.6.5-1 1.5-1 2.3v4.3c0 .6-.4 1.4-.9 1.7l-1.4.9c-1.3.8-3.10004-.1-3.10004-1.7v-5.3c0-.7-.4-1.6-.8-2.1l-.47-.49c-.31-.33-.37-.83-.12-1.22l5.12004-8.22004c.18-.29.5-.47.85-.47h5.12c1.1 0 2 .9 2 2z"/><path d="m10.3504 3.63156-3.55001 5.69c-.34.55-1.12.63-1.57.16l-.93-.98c-.5-.5-.9-1.4-.9-2v-2.3c0-1.2.9-2.1 2-2.1h4.1c.78001 0 1.26001.86.85001 1.53z"/></g></svg>