<svg fill="none" height="24" viewBox="0 0 24 24" width="24" xmlns="http://www.w3.org/2000/svg"><g fill="#292d32"><path d="m16.5098 5.01-1.96-1.96c-1.4-1.4-3.7-1.4-5.10003 0l-1.96 1.96c-.39.39-.39 1.03 0 1.42l3.81003 3.81c.39.39 1.02.39 1.41 0l3.81-3.81c.38-.39.38-1.03-.01-1.42z"/><path d="m5.01 7.49172-1.96 1.96c-1.4 1.39998-1.4 3.69998 0 5.09998l1.96 1.96c.39.39 1.02.39 1.41 0l3.81-3.81c.39-.39.39-1.02 0-1.41l-3.8-3.79998c-.39-.39-1.03-.39-1.42 0z"/><path d="m20.9491 9.45172-1.96-1.96c-.39-.39-1.02-.39-1.41 0l-3.81 3.80998c-.39.39-.39 1.02 0 1.41l3.81 3.81c.39.39 1.02.39 1.41 0l1.96-1.96c1.4-1.41 1.4-3.71 0-5.10998z"/><path d="m7.48907 18.9891 1.96 1.96c1.40003 1.4 3.70003 1.4 5.10003 0l1.96-1.96c.39-.39.39-1.02 0-1.41l-3.81-3.81c-.39-.39-1.02-.39-1.41 0l-3.81003 3.81c-.38.38-.38 1.02.01 1.41z"/></g></svg>